<svg data-v-0dd9719b="" version="1.0" xmlns="http://www.w3.org/2000/svg" xmlns:xlink="http://www.w3.org/1999/xlink" width="100%" height="100%" viewBox="0 0 340.000000 250.000000" preserveAspectRatio="xMidYMid meet" color-interpolation-filters="sRGB" style="margin: auto;"> <rect data-v-0dd9719b="" x="0" y="0" width="100%" height="100%" fill="#ffffff" fill-opacity="1" class="background"></rect> <rect data-v-0dd9719b="" x="0" y="0" width="100%" height="100%" fill="url(#watermark)" fill-opacity="1" class="watermarklayer"></rect> <g data-v-0dd9719b="" fill="#ec806d" class="icon-text-wrapper icon-svg-group iconsvg" transform="translate(69.35499572753906,95)"><g class="iconsvg-imagesvg" transform="translate(0,0)"><g><rect fill="#ec806d" fill-opacity="0" stroke-width="2" x="0" y="0" width="60" height="60" class="image-rect"></rect> <svg filter="url(#colors216840554)" x="0" y="0" width="60" height="60" filtersec="colorsf2917637373" class="image-svg-svg primary" style="overflow: visible;"><svg fill="#000000" xmlns="http://www.w3.org/2000/svg" xmlns:xlink="http://www.w3.org/1999/xlink" version="1.0" x="0px" y="0px" viewBox="10 10 80 80" enable-background="new 0 0 100 100" xml:space="preserve"><path d="M50,10c-22.09,0-40,17.91-40,40c0,22.093,17.91,40,40,40c22.093,0,40-17.907,40-40C90,27.91,72.093,10,50,10z   M26.028,73.128c-1.553-1.611-2.939-3.379-4.144-5.276C27.679,62.959,35.156,60,43.333,60h13.334c10.26,0,19.58-3.896,26.653-10.254  c0,0.088,0.013,0.169,0.013,0.254c0,3.157-0.469,6.198-1.289,9.092c-7.311,4.769-16.012,7.575-25.377,7.575H43.333  C36.719,66.667,30.69,69.121,26.028,73.128z M18.841,61.761c-0.836-2.213-1.438-4.537-1.787-6.946  c7.49-5.134,16.537-8.151,26.279-8.151h13.334c9.534,0,17.906-5.039,22.62-12.591c1.25,2.292,2.2,4.763,2.888,7.341  c-6.11,7.278-15.261,11.917-25.508,11.917H43.333C34.092,53.33,25.608,56.494,18.841,61.761z M74.964,27.963  c-3.086,7.066-10.107,12.034-18.297,12.034H43.333c-9.648,0-18.701,2.588-26.52,7.093c0.257-2.939,0.908-5.759,1.875-8.428  c7.525-3.411,15.862-5.332,24.645-5.332h13.334c6.285,0,11.533-4.385,12.936-10.248C71.563,24.512,73.359,26.146,74.964,27.963z   M50,16.666c4.743,0,9.248,1.006,13.333,2.793v0.531c0,3.678-2.991,6.674-6.666,6.674H43.333c-6.878,0-13.496,1.096-19.739,3.049  C29.688,21.793,39.235,16.666,50,16.666z M50,83.333c-6.982,0-13.457-2.154-18.815-5.823c3.373-2.604,7.572-4.177,12.148-4.177  h13.334c7.301,0,14.251-1.504,20.589-4.18C71.224,77.722,61.276,83.333,50,83.333z"></path></svg></svg> <defs><filter id="colors216840554"><feColorMatrix type="matrix" values="0 0 0 0 0.19921875  0 0 0 0 0.19921875  0 0 0 0 0.19921875  0 0 0 1 0" class="icon-fecolormatrix"></feColorMatrix></filter> <filter id="colorsf2917637373"><feColorMatrix type="matrix" values="0 0 0 0 0.99609375  0 0 0 0 0.99609375  0 0 0 0 0.99609375  0 0 0 1 0" class="icon-fecolormatrix"></feColorMatrix></filter> <filter id="colorsb566176479"><feColorMatrix type="matrix" values="0 0 0 0 0  0 0 0 0 0  0 0 0 0 0  0 0 0 1 0" class="icon-fecolormatrix"></feColorMatrix></filter></defs></g></g> <g transform="translate(67,6.274999618530273)"><g data-gra="path-name" fill-rule="" class="tp-name iconsvg-namesvg"><g transform="scale(1)"><g><path d="M39.84-24.77Q41.34-24.77 42.25-23.89 43.16-23.01 43.16-21.58L43.16-21.58 43.16-7.61Q43.16-4.62 42.38-3.38 41.6-2.15 39.2-1.36L39.2-1.36Q36.59-0.46 33.15 0.07 29.71 0.58 26.52 0.58L26.52 0.58Q19.44 0.58 14.24-2.21 9.04-5 6.27-10.3 3.51-15.6 3.51-22.95L3.51-22.95Q3.51-30.16 6.27-35.46 9.04-40.76 14.11-43.58 19.18-46.41 26.07-46.41L26.07-46.41Q35.23-46.41 41.08-41.47L41.08-41.47Q41.86-40.76 42.22-40.04 42.58-39.33 42.58-38.35L42.58-38.35Q42.58-36.92 41.8-35.95 41.02-34.97 39.91-34.97L39.91-34.97Q39.2-34.97 38.61-35.2 38.02-35.43 37.25-35.95L37.25-35.95Q34.38-37.96 31.92-38.77 29.45-39.59 26.32-39.59L26.32-39.59Q19.24-39.59 15.63-35.39 12.03-31.2 12.03-22.95L12.03-22.95Q12.03-6.04 26.85-6.04L26.85-6.04Q31.27-6.04 35.69-7.28L35.69-7.28 35.69-18.79 28.34-18.79Q26.78-18.79 25.9-19.57 25.03-20.35 25.03-21.78L25.03-21.78Q25.03-23.21 25.9-23.98 26.78-24.77 28.34-24.77L28.34-24.77 39.84-24.77ZM55.9 0.39Q54.15 0.39 53.01-0.62 51.87-1.63 51.87-3.51L51.87-3.51 51.87-28.6Q51.87-30.48 53.01-31.46 54.15-32.44 55.9-32.44L55.9-32.44Q57.66-32.44 58.83-31.46 60-30.48 60-28.6L60-28.6 60-3.51Q60-1.63 58.83-0.62 57.66 0.39 55.9 0.39L55.9 0.39ZM55.9-38.22Q53.69-38.22 52.39-39.42 51.09-40.63 51.09-42.58L51.09-42.58Q51.09-44.52 52.39-45.7 53.69-46.87 55.9-46.87L55.9-46.87Q58.05-46.87 59.38-45.7 60.71-44.52 60.71-42.58L60.71-42.58Q60.71-40.63 59.41-39.42 58.11-38.22 55.9-38.22L55.9-38.22ZM82.88 0.52Q78 0.52 74.33-1.5 70.66-3.51 68.64-7.28 66.63-11.05 66.63-16.05L66.63-16.05Q66.63-21.06 68.64-24.8 70.66-28.54 74.33-30.55 78-32.56 82.88-32.56L82.88-32.56Q87.75-32.56 91.42-30.55 95.09-28.54 97.08-24.8 99.06-21.06 99.06-16.05L99.06-16.05Q99.06-11.05 97.08-7.28 95.09-3.51 91.42-1.5 87.75 0.52 82.88 0.52L82.88 0.52ZM82.81-5.79Q86.78-5.79 88.86-8.38 90.94-10.99 90.94-16.05L90.94-16.05Q90.94-21.06 88.86-23.69 86.78-26.32 82.88-26.32L82.88-26.32Q78.97-26.32 76.86-23.69 74.75-21.06 74.75-16.05L74.75-16.05Q74.75-10.99 76.83-8.38 78.91-5.79 82.81-5.79L82.81-5.79ZM133.9-6.76Q137.8-6.76 137.8-3.45L137.8-3.45Q137.8 0 133.9 0L133.9 0 109.2 0Q107.51 0 106.53-1.01 105.56-2.02 105.56-3.51L105.56-3.51Q105.56-5.46 107.06-7.02L107.06-7.02 121.88-22.95Q124.61-25.94 125.87-28.44 127.14-30.94 127.14-33.41L127.14-33.41Q127.14-36.47 125.39-38.09 123.63-39.72 120.38-39.72L120.38-39.72Q117.72-39.72 115.21-38.71 112.71-37.7 110.17-35.95L110.17-35.95Q109.53-35.49 108.88-35.2 108.22-34.91 107.58-34.91L107.58-34.91Q106.47-34.91 105.66-35.95 104.84-36.98 104.84-38.41L104.84-38.41Q104.84-39.39 105.2-40.11 105.56-40.82 106.34-41.47L106.34-41.47Q109.2-43.75 113.03-45.08 116.87-46.41 120.7-46.41L120.7-46.41Q127.4-46.41 131.4-43.03 135.4-39.65 135.4-33.93L135.4-33.93Q135.4-29.96 133.71-26.49 132.01-23.01 127.98-18.72L127.98-18.72 116.74-6.76 133.9-6.76Z" transform="translate(-3.509999990463257, 46.869998931884766)"></path></g> <!----> <!----> <!----> <!----> <!----> <!----> <!----></g></g> <!----></g></g><defs v-gra="od"></defs></svg>